<svg width="122" height="32" viewBox="0 0 122 32" fill="none" xmlns="http://www.w3.org/2000/svg">
  <!-- F -->
  <path d="M15.4 6.2H27.8V10.5H20.4V14.6H26.8V18.9H20.4V27.7H15.4V6.2Z" fill="#34CB65"/>
  <!-- r -->
  <path d="M29.8 15.7C29.8 10.5 33.6 6.2 39.9 6.2H41.9V11H39.9C36.5 11 34.8 13 34.8 15.7V27.7H29.8V15.7Z" fill="#34CB65"/>
  <!-- e -->
  <path d="M42 17C42 12.5 45.5 9.5 50 9.5H58V13.5H50C48 13.5 47 15 47 17C47 19 48 20.5 50 20.5H55V13.5H60V24.5H50C45.5 24.5 42 21.5 42 17Z" fill="#34CB65"/>
  <!-- J -->
  <path d="M69 6.2H74V20.5C74 25 71.5 28 67 28H65.5V23.7H66.5C68.5 23.7 69 22.7 69 20.5V6.2Z" fill="#34CB65"/>
  <!-- u -->
  <path d="M76 10.5H81V22.5C81 23.5 81.5 24 82.5 24H84.5C85.5 24 86 23.5 86 22.5V10.5H91V22.5C91 26 89 28 85.5 28H81.5C78 28 76 26 76 22.5V10.5Z" fill="#34CB65"/>
  <!-- n -->
  <path d="M93 10.5H98V12.5C98.5 11 100 10.5 102 10.5H103.5C106.5 10.5 108 12.5 108 15.5V27.7H103V16.5C103 15.5 102.5 15 101.5 15C100.5 15 98 15.5 98 16.5V27.7H93V10.5Z" fill="#34CB65"/>
</svg> 