<svg width="122" height="32" viewBox="0 0 122 32" fill="none" xmlns="http://www.w3.org/2000/svg">
  <path d="M15.4 6.2H27.8V10.5H20.4V14.6H26.8V18.9H20.4V27.7H15.4V6.2Z" fill="#FFFFFF"/>
  <path d="M29.8 15.7C29.8 10.5 33.6 6.2 39.9 6.2H41.9V11H39.9C36.5 11 34.8 13 34.8 15.7V27.7H29.8V15.7Z" fill="#FFFFFF"/>
  <path d="M44.1 17.1C44.1 10.9 48.8 6.2 55.2 6.2C61.6 6.2 66.3 10.9 66.3 17.1C66.3 23.3 61.6 28 55.2 28C48.8 28 44.1 23.3 44.1 17.1ZM61.1 17.1C61.1 13.5 58.7 10.9 55.2 10.9C51.7 10.9 49.3 13.5 49.3 17.1C49.3 20.7 51.7 23.3 55.2 23.3C58.7 23.3 61.1 20.7 61.1 17.1Z" fill="#FFFFFF"/>
  <path d="M78 10.9H74.7V6.2H78V1.5H83V6.2H87.9V10.9H83V19.4C83 21.8 84.2 23.3 86.4 23.3H87.9V28H85.4C80.9 28 78 25.1 78 19.4V10.9Z" fill="#FFFFFF"/>
  <path d="M101.4 6.2H106.2L96.4 27.7H91.6L101.4 6.2Z" fill="#FFFFFF"/>
  <path d="M108.2 6.2H122V10.5H113.2V14.6H120.8V18.9H113.2V23.4H122V27.7H108.2V6.2Z" fill="#FFFFFF"/>
</svg> 